<svg width="164" height="32" viewBox="0 0 164 32" fill="none" xmlns="http://www.w3.org/2000/svg">
<path d="M15.4599 22.5971C15.042 22.5971 14.6938 22.7364 14.4849 22.9453C14.2064 23.1542 13.9278 23.5024 13.4403 23.9202C13.0921 24.2684 12.8136 24.547 12.535 24.7559C12.2565 24.9648 11.9779 25.1737 11.6297 25.313C11.3512 25.4523 11.003 25.5916 10.6548 25.6612C10.3066 25.7308 9.88875 25.7308 9.47092 25.7308C8.49597 25.7308 7.72994 25.5219 7.03355 25.1737C6.33716 24.8255 5.78004 24.2684 5.36221 23.6417C4.94438 23.0149 4.59618 22.2489 4.38726 21.3436C4.17835 20.4383 4.10871 19.533 4.10871 18.558C4.10871 17.5831 4.17835 16.6778 4.38726 15.8421C4.59618 15.0064 4.87474 14.2404 5.36221 13.6136C5.78004 12.9869 6.33716 12.4298 7.03355 12.0816C7.72994 11.7334 8.49597 11.5245 9.47092 11.5245C10.3066 11.5245 11.003 11.6637 11.5601 11.9423C12.1172 12.2209 12.744 12.7083 13.3707 13.4047C13.7189 13.7529 13.9975 14.1011 14.276 14.31C14.5546 14.5189 14.9028 14.6582 15.4599 14.6582C16.017 14.6582 16.5045 14.4493 16.8527 14.1011C17.2009 13.7529 17.3401 13.3351 17.3401 12.778C17.3401 12.3601 17.2705 12.0119 17.0616 11.6637C16.8527 11.3155 16.5741 10.9674 16.2955 10.6192C16.017 10.271 15.5992 9.9924 15.1813 9.64421C14.7635 9.36565 14.276 9.0871 13.7189 8.80854C13.1618 8.59962 12.535 8.3907 11.9083 8.25143C11.2815 8.11215 10.5155 8.04251 9.81911 8.04251C8.07814 8.04251 6.61571 8.32106 5.36221 8.87818C4.10871 9.43529 3.13376 10.271 2.29809 11.2459C1.53206 12.2209 0.905308 13.3351 0.557113 14.6582C0.208917 15.9117 0 17.3045 0 18.6973C0 20.0204 0.139278 21.3436 0.487474 22.5971C0.835669 23.8506 1.32314 24.9648 2.08917 25.9398C2.8552 26.9147 3.76051 27.6807 5.01401 28.3075C6.19788 28.8646 7.72994 29.1432 9.40128 29.1432C11.0726 29.1432 12.535 28.8646 13.7189 28.3771C14.9028 27.8897 15.8081 27.2629 16.4348 26.6361C17.2009 25.8701 17.5491 25.1041 17.5491 24.4077C17.5491 23.9202 17.3401 23.5024 16.9919 23.1542C16.4348 22.806 16.017 22.5971 15.4599 22.5971ZM29.2484 14.0315C29.1091 13.8226 28.9002 13.6833 28.6913 13.544C28.4128 13.4047 28.0646 13.3351 27.6467 13.3351C26.8111 13.3351 26.1147 13.544 25.4879 14.0315C24.8612 14.4493 24.3737 15.0064 24.0255 15.6332V15.0064C24.0255 14.5189 23.8862 14.1707 23.538 13.9618C23.1898 13.7529 22.7023 13.6833 22.1452 13.6833C21.3792 13.6833 20.8917 13.8226 20.6132 14.1707C20.3346 14.5189 20.1953 14.8671 20.1953 15.285V27.3325C20.1953 28.4468 20.8221 29.0735 22.1452 29.0735C22.8416 29.0735 23.3291 28.9342 23.6773 28.6557C23.9558 28.3771 24.1648 27.9593 24.1648 27.3325V21.6918C24.1648 20.7865 24.2344 19.9508 24.3737 19.324C24.513 18.6973 24.9308 18.2098 25.5575 17.8616C25.9754 17.6527 26.3932 17.5134 26.8111 17.4438C27.1592 17.3741 27.5771 17.3045 27.9253 17.2349C28.2735 17.1652 28.552 17.0956 28.7609 16.9563C28.9699 16.817 29.1091 16.6778 29.2484 16.4688C29.3877 16.3296 29.4573 16.1206 29.4573 15.9117C29.4573 15.7028 29.527 15.4939 29.527 15.3546C29.527 15.2153 29.527 15.0064 29.4573 14.7975C29.3877 14.4493 29.3181 14.2404 29.2484 14.0315ZM37.814 13.3351C36.4909 13.3351 35.3767 13.544 34.4017 14.0315C33.4268 14.5189 32.6607 15.0761 32.034 15.8421C31.4072 16.6081 30.9894 17.4438 30.6412 18.4187C30.3626 19.3937 30.2234 20.3686 30.2234 21.4132C30.2234 22.7364 30.4323 23.9202 30.7805 24.8952C31.1287 25.8701 31.6858 26.7058 32.3125 27.3325C33.0089 27.9593 33.8446 28.4468 34.8195 28.7253C35.7945 29.0039 36.9087 29.2128 38.0926 29.2128C38.9283 29.2128 39.7639 29.1432 40.5996 28.9342C41.4353 28.7253 42.2013 28.4468 42.828 28.0289C43.3155 27.7504 43.5941 27.4718 43.803 27.1933C44.0119 26.9147 44.0815 26.6361 44.0815 26.288C44.0815 25.8005 43.9423 25.3826 43.5941 24.9648C43.2459 24.547 42.8977 24.4077 42.5495 24.4077C42.2013 24.4077 41.9227 24.4773 41.6442 24.6166C41.3656 24.7559 41.1567 24.8952 40.8085 25.1041C40.5299 25.2434 40.1121 25.4523 39.6943 25.6612C39.2764 25.8701 38.7193 25.9398 38.1622 25.9398C35.7945 25.9398 34.4714 24.7559 34.3321 22.3882H42.7584C43.3852 22.3882 43.8726 22.2489 44.2208 22.04C44.569 21.831 44.7083 21.4132 44.7083 20.8561C44.7083 18.4187 44.0815 16.5385 42.828 15.2153C41.6442 13.9618 39.9728 13.3351 37.814 13.3351ZM34.541 19.3937C34.6106 18.4187 34.9588 17.6527 35.5856 17.1652C36.2123 16.6778 36.9087 16.3992 37.7444 16.3992C38.2319 16.3992 38.7193 16.4688 39.0675 16.6778C39.4157 16.8867 39.7639 17.0956 39.9728 17.3741C40.1818 17.6527 40.3907 18.0009 40.53 18.3491C40.6692 18.6973 40.6692 19.0455 40.6692 19.3937H34.541ZM59.82 8.3907C59.3325 8.3907 58.845 8.46034 58.4272 8.66926C58.0094 8.87818 57.8004 9.29601 57.8004 9.92276V15.5635C57.6612 15.285 57.4522 15.0761 57.2433 14.7975C57.0344 14.5189 56.7559 14.31 56.4077 14.1011C56.0595 13.8922 55.6416 13.6833 55.2238 13.6136C54.7363 13.4744 54.2489 13.4047 53.6917 13.4047C52.6472 13.4047 51.7418 13.6136 50.9062 14.0315C50.0705 14.4493 49.3741 15.0064 48.817 15.7028C48.2599 16.3992 47.8421 17.2349 47.4939 18.2098C47.2153 19.1848 47.076 20.2294 47.076 21.3436C47.076 22.5274 47.2153 23.572 47.4939 24.547C47.7724 25.5219 48.1903 26.3576 48.7474 27.054C49.3045 27.7504 50.0009 28.3075 50.8365 28.7253C51.6722 29.1432 52.5775 29.3521 53.6221 29.3521C54.3881 29.3521 55.0845 29.2824 55.572 29.0735C56.1291 28.8646 56.5469 28.6557 56.8951 28.3771C57.313 28.0986 57.6612 27.7504 57.8701 27.3325V27.4718C57.8701 28.0289 58.0094 28.4468 58.3576 28.6557C58.6361 28.9342 59.1932 29.0039 59.8896 29.0039C61.1431 29.0039 61.7699 28.4468 61.7699 27.4022V9.9924C61.7699 9.50493 61.6306 9.0871 61.2824 8.80854C61.0038 8.52998 60.5164 8.3907 59.82 8.3907ZM57.1041 24.6863C56.5469 25.5219 55.7113 25.9398 54.597 25.9398C53.4828 25.9398 52.5775 25.5219 52.0204 24.6166C51.4633 23.7809 51.1847 22.6667 51.1847 21.3436C51.1847 20.7168 51.2544 20.0901 51.3937 19.533C51.5329 18.9758 51.7418 18.4884 52.0204 18.0705C52.299 17.6527 52.6472 17.3045 53.1346 17.0956C53.5525 16.8867 54.0399 16.7474 54.597 16.7474C55.1542 16.7474 55.6416 16.8867 56.0595 17.0956C56.4773 17.3045 56.8255 17.6527 57.1041 18.0705C57.3826 18.4884 57.5915 18.9758 57.7308 19.533C57.8701 20.0901 57.9397 20.7168 57.9397 21.3436C57.9397 22.7364 57.6612 23.8506 57.1041 24.6863ZM67.9678 13.6136C67.2017 13.6136 66.7143 13.7529 66.3661 14.1011C66.0179 14.4493 65.8786 14.8671 65.8786 15.4243V27.3325C65.8786 28.3771 66.575 28.8646 67.9678 28.8646C68.5945 28.8646 69.082 28.7253 69.4302 28.5164C69.7784 28.2378 69.9176 27.82 69.9176 27.2629V15.285C69.9176 14.7279 69.7784 14.31 69.4302 14.0315C69.082 13.7529 68.5945 13.6136 67.9678 13.6136ZM69.4998 8.25143C69.0123 7.90323 68.5249 7.76395 67.9678 7.76395C67.2714 7.76395 66.7142 7.97287 66.2964 8.3907C65.8786 8.80854 65.6697 9.29601 65.6697 9.92276C65.6697 10.5495 65.8786 11.1066 66.2964 11.4548C66.7142 11.8727 67.2714 12.0119 67.9678 12.0119C68.6641 12.0119 69.2213 11.803 69.6391 11.4548C70.0569 11.037 70.2658 10.5495 70.2658 9.92276C70.1962 9.08709 69.9873 8.59962 69.4998 8.25143ZM82.383 25.7308C82.1741 25.313 81.8259 25.1737 81.3385 25.1737C81.1295 25.1737 80.9903 25.2434 80.851 25.313L80.3635 25.5219C80.2242 25.5916 80.0153 25.6612 79.876 25.7308C79.7368 25.8005 79.5278 25.8005 79.2493 25.8005C78.9011 25.8005 78.6225 25.7308 78.4833 25.5219C78.344 25.313 78.2047 25.0344 78.2047 24.547V16.7474H80.5724C81.2688 16.7474 81.617 16.2599 81.617 15.2153C81.617 14.7975 81.5474 14.5189 81.4081 14.2404C81.2688 13.9618 80.9903 13.8226 80.5724 13.8226H78.2047V10.4799C78.2047 10.1317 78.1351 9.78349 77.9261 9.57457C77.7172 9.36565 77.369 9.22637 76.8816 9.22637C76.603 9.22637 76.3244 9.22637 75.9762 9.29601C75.6977 9.36565 75.4191 9.50493 75.1406 9.64421C74.862 9.78349 74.6531 9.9924 74.5138 10.2013C74.3745 10.4102 74.2353 10.7584 74.2353 11.1066V13.8922H72.9818C72.6336 13.8922 72.4247 14.0315 72.2854 14.31C72.1461 14.5886 72.0765 14.9368 72.0765 15.285C72.0765 15.6332 72.1461 15.9814 72.2854 16.3296C72.4247 16.6778 72.7032 16.817 72.9818 16.817H74.2353V25.0344C74.2353 26.4969 74.5835 27.5415 75.3495 28.2378C76.1155 28.9342 77.0905 29.2824 78.4136 29.2824C79.2493 29.2824 79.9457 29.2128 80.5028 29.0735C81.0599 28.9342 81.5474 28.7253 81.9652 28.4468C82.2438 28.3075 82.4527 28.0986 82.5223 27.82C82.6616 27.6111 82.6616 27.3325 82.6616 26.9843C82.6616 26.4969 82.592 26.079 82.383 25.7308Z" fill="#373742"/>
<path d="M163.513 28.5164C163.234 28.795 162.747 28.8646 162.05 28.8646C161.493 28.8646 161.006 28.7253 160.657 28.5164C160.309 28.3075 160.17 27.8896 160.17 27.2629V26.7754C159.961 27.054 159.752 27.3325 159.474 27.6111C159.195 27.8896 158.916 28.0986 158.499 28.3075C158.15 28.5164 157.663 28.7253 157.175 28.795C156.688 28.9342 156.061 29.0039 155.434 29.0039C153.902 29.0039 152.719 28.586 151.813 27.82C150.908 26.9843 150.49 25.9398 150.49 24.6166C150.49 23.8506 150.629 23.1542 150.908 22.6667C151.186 22.1096 151.535 21.6918 151.953 21.2739C152.44 20.9257 152.927 20.6472 153.554 20.4383C154.181 20.2293 154.808 20.0901 155.504 19.9508C156.27 19.8115 156.967 19.7419 157.733 19.6026C158.499 19.533 159.265 19.4633 160.17 19.3937V18.8366C160.17 18.558 160.1 18.2795 160.031 18.0009C159.961 17.7223 159.822 17.4438 159.613 17.2349C159.404 17.026 159.195 16.817 158.847 16.6778C158.499 16.5385 158.081 16.4688 157.663 16.4688C157.384 16.4688 157.036 16.4688 156.827 16.5385C156.549 16.6081 156.34 16.6081 156.061 16.7474C155.852 16.817 155.574 16.9563 155.295 17.0956C155.017 17.2349 154.738 17.4438 154.39 17.6527C154.111 17.8616 153.902 18.0009 153.693 18.0705C153.485 18.2098 153.206 18.2795 152.858 18.2795C152.44 18.2795 152.022 18.1402 151.674 17.792C151.326 17.4438 151.186 17.026 151.186 16.5385C151.186 16.1903 151.326 15.8421 151.604 15.4939C151.883 15.1457 152.301 14.7975 152.858 14.4493C153.415 14.1011 154.111 13.8922 154.877 13.6833C155.713 13.4744 156.618 13.3351 157.733 13.3351C159.961 13.3351 161.563 13.7529 162.538 14.6582C163.513 15.4939 164 16.8867 164 18.6973V27.3325C163.93 27.8896 163.791 28.3075 163.513 28.5164ZM160.1 21.9007C159.334 21.9703 158.638 22.04 158.011 22.1792C157.315 22.2489 156.827 22.3882 156.549 22.4578C155.643 22.6667 155.017 22.9453 154.738 23.2935C154.46 23.6417 154.32 23.9899 154.32 24.4077C154.32 24.8952 154.46 25.313 154.808 25.5916C155.086 25.8701 155.643 26.0094 156.409 26.0094C157.593 26.0094 158.568 25.7308 159.195 25.1737C159.822 24.6166 160.17 23.9202 160.17 23.0149L160.1 21.9007ZM141.646 19.324L143.178 19.6026C144.919 19.9508 146.242 20.4383 147.008 21.1347C147.774 21.831 148.192 22.9453 148.192 24.3381C148.192 25.9398 147.635 27.1933 146.451 27.9593C145.267 28.795 143.665 29.1432 141.646 29.1432C140.462 29.1432 139.417 29.0039 138.512 28.7253C137.607 28.4468 136.841 28.0986 136.284 27.6807C136.005 27.5415 135.866 27.3325 135.727 27.054C135.587 26.8451 135.518 26.6361 135.518 26.4272C135.518 26.0094 135.587 25.6612 135.796 25.313C135.936 25.0344 136.144 24.7559 136.423 24.6166C136.632 24.4077 136.98 24.3381 137.259 24.3381C137.537 24.3381 137.816 24.4077 138.094 24.6166C138.373 24.8255 138.651 24.9648 139 25.1737C139.348 25.3826 139.696 25.5916 140.183 25.7308C140.601 25.8701 141.158 26.0094 141.855 26.0094C142.691 26.0094 143.317 25.8701 143.665 25.5916C144.014 25.313 144.223 24.9648 144.223 24.4773C144.223 24.1291 144.083 23.7809 143.805 23.5024C143.526 23.2238 143.039 23.0149 142.203 22.8756L140.462 22.5971C139.766 22.4578 139.069 22.3185 138.512 22.1096C137.955 21.9007 137.398 21.6221 136.98 21.2739C136.562 20.9257 136.214 20.5079 136.005 19.9508C135.796 19.4633 135.657 18.8366 135.657 18.0705C135.657 17.3045 135.796 16.6081 136.144 15.9814C136.423 15.3546 136.91 14.8671 137.468 14.4493C138.025 14.0315 138.721 13.7529 139.487 13.4744C140.253 13.2654 141.158 13.1262 142.064 13.1262C143.387 13.1262 144.501 13.2654 145.337 13.6136C146.172 13.9618 146.799 14.2404 147.217 14.5886C147.496 14.7975 147.635 15.0064 147.705 15.2153C147.774 15.4243 147.844 15.6332 147.844 15.8421C147.844 16.3296 147.705 16.6778 147.496 17.026C147.356 17.2349 147.147 17.3741 147.008 17.4438C146.869 17.5831 146.66 17.5831 146.381 17.5831C146.172 17.5831 145.964 17.5134 145.755 17.4438C145.546 17.3741 145.337 17.2349 145.198 17.1652C144.71 16.8867 144.153 16.6081 143.665 16.3992C143.178 16.1903 142.551 16.1206 141.785 16.1206C141.019 16.1206 140.462 16.2599 140.114 16.5385C139.766 16.817 139.557 17.0956 139.557 17.5134C139.557 17.8616 139.696 18.1402 139.975 18.4187C140.183 18.9062 140.741 19.1151 141.646 19.324ZM130.434 28.9342C129.877 28.9342 129.389 28.795 129.041 28.586C128.693 28.3771 128.554 27.9593 128.554 27.3325V26.8451C128.345 27.1236 128.136 27.4022 127.857 27.6807C127.579 27.9593 127.3 28.1682 126.882 28.3771C126.534 28.586 126.047 28.795 125.559 28.8646C125.072 29.0039 124.445 29.0735 123.818 29.0735C122.286 29.0735 121.102 28.6557 120.197 27.8896C119.292 27.054 118.874 26.0094 118.874 24.6863C118.874 23.9202 119.013 23.2238 119.292 22.7364C119.57 22.1792 119.919 21.7614 120.336 21.3436C120.824 20.9954 121.311 20.7168 121.938 20.5079C122.565 20.299 123.192 20.1597 123.888 20.0204C124.654 19.8812 125.35 19.8115 126.116 19.6722C126.882 19.6026 127.648 19.533 128.554 19.4633V18.9062C128.554 18.6277 128.484 18.3491 128.414 18.0705C128.345 17.792 128.206 17.5134 127.997 17.3045C127.788 17.0956 127.579 16.8867 127.231 16.7474C126.882 16.6081 126.465 16.5385 126.047 16.5385C125.768 16.5385 125.42 16.5385 125.211 16.6081C124.933 16.6778 124.724 16.6778 124.445 16.817C124.236 16.8867 123.958 17.026 123.679 17.1652C123.4 17.3045 123.122 17.5134 122.774 17.7223C122.495 17.9313 122.286 18.0705 122.077 18.1402C121.868 18.2795 121.59 18.3491 121.242 18.3491C120.824 18.3491 120.406 18.2098 120.058 17.8616C119.71 17.5134 119.57 17.0956 119.57 16.6081C119.57 16.2599 119.71 15.9117 119.988 15.5635C120.267 15.2153 120.685 14.8671 121.242 14.5189C121.799 14.1707 122.495 13.9618 123.261 13.7529C124.097 13.544 125.002 13.4047 126.116 13.4047C128.345 13.4047 129.947 13.8226 130.921 14.7279C131.896 15.5635 132.384 16.9563 132.384 18.7669V27.4022C132.384 27.9593 132.245 28.3771 131.966 28.586C131.618 28.795 131.13 28.9342 130.434 28.9342ZM128.554 21.9007C127.788 21.9703 127.091 22.04 126.465 22.1792C125.768 22.2489 125.281 22.3882 125.002 22.4578C124.097 22.6667 123.47 22.9453 123.192 23.2935C122.913 23.6417 122.774 23.9899 122.774 24.4077C122.774 24.8952 122.913 25.313 123.261 25.5916C123.54 25.8701 124.097 26.0094 124.863 26.0094C126.047 26.0094 127.022 25.7308 127.648 25.1737C128.275 24.6166 128.623 23.9202 128.623 23.0149L128.554 21.9007ZM106.548 29.561L103.762 25.5916L105.155 23.572L107.732 27.2629C108.846 28.8646 110.448 29.1432 111.631 28.3075C112.815 27.4718 113.024 25.9398 111.91 24.3381L108.219 19.1151L109.682 17.026L114.487 23.9202C115.81 25.8005 115.253 28.8646 113.024 30.3967C110.935 31.9984 107.871 31.5109 106.548 29.561ZM101.882 25.5219V21.3436L111.91 6.99792C113.024 5.39622 112.815 3.86416 111.631 3.02849C110.448 2.19282 108.916 2.47138 107.732 4.07308L101.812 12.4994V8.46034L106.478 1.77499C107.801 -0.105266 110.865 -0.662378 113.024 0.939321C115.183 2.54102 115.81 5.5355 114.487 7.41576L101.882 25.5219ZM95.4056 31.3716C92.9682 31.3716 91.0183 29.6306 90.6005 27.6111C90.5308 27.2629 90.4612 26.8451 90.4612 26.288C90.4612 26.1487 90.4612 25.5916 90.5308 25.1041V4.56055C90.5308 2.19282 92.6896 0.103652 95.4056 0.103652C98.1215 0.103652 100.28 2.26246 100.28 4.56055V26.9147C100.28 29.2128 98.1215 31.3716 95.4056 31.3716ZM97.9126 5.67478C97.9126 3.72488 96.868 2.61066 95.4056 2.61066C94.0128 2.61066 92.8289 3.72488 92.8289 5.67478V25.5916C92.8289 27.5415 94.0128 28.8646 95.4056 28.8646C96.7983 28.8646 97.9126 27.6111 97.9126 25.5916V5.67478Z" fill="#FFC200"/>
</svg>
