<svg width="66" height="56" viewBox="0 0 66 56" fill="none" xmlns="http://www.w3.org/2000/svg">
<path d="M57.3176 31.82C57.3176 45.1746 46.4922 56 33.1358 56C19.7812 56 8.95581 45.1746 8.95581 31.82C8.95581 18.4655 19.7812 7.64008 33.1358 7.64008C34.5603 7.64008 35.9575 7.76363 37.3148 7.99983C37.4438 8.02164 37.3148 5.25079 39.4042 2.71433C44.3318 -2.51122 61.2785 0.0924727 65.2285 8.08705C61.2258 11.8736 48.8088 11.5193 40.4508 3.90807C38.9573 5.55059 39.3116 8.4359 39.4061 8.46134C49.7209 11.2213 57.3176 20.6331 57.3176 31.82Z" fill="#171E26"/>
<path d="M50.9 8.68482C60.7515 11.8191 64.0347 7.78907 64.0347 7.78907C64.0347 7.78907 59.5578 2.11655 52.0938 0.922816C43.6468 -0.428994 41.1975 3.01231 41.1975 3.01231C41.1975 3.01231 46.7174 7.353 50.9 8.68482Z" fill="#2F6F4A"/>
<path d="M33.1376 55.1061C45.9981 55.1061 56.4236 44.6806 56.4236 31.82C56.4236 18.9595 45.9981 8.53402 33.1376 8.53402C20.2771 8.53402 9.85156 18.9595 9.85156 31.82C9.85156 44.6806 20.2771 55.1061 33.1376 55.1061Z" fill="#F79D01"/>
<path d="M56.4216 31.82C56.4216 44.6804 46.2631 55.1061 33.7334 55.1061C34.4329 48.9248 47.4586 50.7944 48.1582 33.6897C47.0371 18.1657 38.214 10.2601 33.7334 8.53584C46.2649 8.53402 56.4216 18.9597 56.4216 31.82Z" fill="#F67A00"/>
<path d="M43.8831 2.71251C43.8831 2.87059 43.6832 2.99778 43.4361 2.99778C43.189 2.99778 42.9873 2.87059 42.9873 2.71251C42.9873 2.55444 43.1872 2.42725 43.4361 2.42725C43.6832 2.42907 43.8831 2.55626 43.8831 2.71251Z" fill="#5FAB7C"/>
<path d="M45.9741 2.14381C45.9741 2.30188 45.7743 2.42907 45.5272 2.42907C45.28 2.42907 45.0784 2.30188 45.0784 2.14381C45.0784 1.98573 45.2782 1.85855 45.5272 1.85855C45.7724 1.85855 45.9741 1.98573 45.9741 2.14381Z" fill="#5FAB7C"/>
<path d="M48.3618 1.95303C48.3618 2.1111 48.162 2.23829 47.9149 2.23829C47.6677 2.23829 47.4661 2.1111 47.4661 1.95303C47.4661 1.79495 47.6659 1.66777 47.9149 1.66777C48.162 1.66777 48.3618 1.79677 48.3618 1.95303Z" fill="#5FAB7C"/>
<path d="M50.7492 2.33277C50.7492 2.49084 50.5493 2.61803 50.3022 2.61803C50.0551 2.61803 49.8552 2.49084 49.8552 2.33277C49.8552 2.17469 50.0551 2.04751 50.3022 2.04751C50.5493 2.04751 50.7492 2.17651 50.7492 2.33277Z" fill="#5FAB7C"/>
<path d="M52.8388 2.71251C52.8388 2.87059 52.6389 2.99778 52.3918 2.99778C52.1447 2.99778 51.9448 2.87059 51.9448 2.71251C51.9448 2.55444 52.1447 2.42725 52.3918 2.42725C52.6389 2.42725 52.8388 2.55626 52.8388 2.71251Z" fill="#5FAB7C"/>
<path d="M55.228 3.47381C55.228 3.63189 55.0282 3.75907 54.7792 3.75907C54.5321 3.75907 54.3323 3.63189 54.3323 3.47381C54.3323 3.31574 54.5321 3.18855 54.7792 3.18855C55.0282 3.18855 55.228 3.31574 55.228 3.47381Z" fill="#5FAB7C"/>
<path d="M15.6656 31.1986C15.5893 31.3186 15.6257 31.4766 15.7474 31.5493C16.6668 32.0835 17.7043 32.3869 18.7708 32.4305C19.8373 32.4741 20.8948 32.2597 21.856 31.8037C21.985 31.7437 22.0322 31.5875 21.9668 31.4621C21.9014 31.3367 21.747 31.2877 21.618 31.3494C20.7367 31.7637 19.7665 31.9599 18.7908 31.9182C17.8151 31.8782 16.8648 31.602 16.0218 31.1151C15.9 31.0424 15.7419 31.0787 15.6656 31.1986Z" fill="#171E26"/>
<path d="M11.0452 21.9685H18.2094H20.6005H26.2712V23.76H11.0452V21.9685Z" fill="#171E26"/>
<path d="M0.00181695 21.9685C0.00181695 22.0176 0 22.0685 0 22.1175C0 27.1468 4.07723 31.2223 9.10473 31.2223C14.134 31.2223 18.2095 27.145 18.2095 22.1175C18.2095 22.0667 18.2095 22.0176 18.2076 21.9685H11.0452H0.00181695ZM38.8082 21.9685H26.2713H20.6006C20.6006 22.0176 20.5988 22.0685 20.5988 22.1175C20.5988 27.1468 24.676 31.2223 29.7035 31.2223C34.7328 31.2223 38.8082 27.145 38.8082 22.1175C38.8082 22.0685 38.8082 22.0176 38.8082 21.9685Z" fill="#171E26"/>
<path d="M2.01143 23.6783C1.87152 23.6965 1.77159 23.8255 1.79521 23.9654C1.97327 25.0137 2.40389 26.0058 3.05254 26.8525C3.69937 27.6992 4.54426 28.3751 5.50906 28.8221C5.63806 28.882 5.78887 28.8184 5.84337 28.6894C5.89788 28.5586 5.83611 28.4096 5.7071 28.3478C4.82407 27.9354 4.05368 27.3158 3.46135 26.54C2.86903 25.7641 2.47293 24.8575 2.30577 23.8981C2.28034 23.7582 2.15133 23.6601 2.01143 23.6783Z" fill="white"/>
<path d="M23.5058 23.6783C23.3659 23.6965 23.266 23.8255 23.2896 23.9654C23.4677 25.0137 23.8983 26.0058 24.5469 26.8525C25.1938 27.6992 26.0386 28.3751 27.0034 28.8221C27.1324 28.882 27.2832 28.8184 27.3378 28.6894C27.3923 28.5586 27.3305 28.4096 27.2015 28.3478C26.3184 27.9354 25.5481 27.3158 24.9557 26.54C24.3634 25.7641 23.9673 24.8575 23.8002 23.8981C23.7729 23.7582 23.6457 23.6601 23.5058 23.6783Z" fill="white"/>
</svg>
