<svg width="128" height="36" viewBox="0 0 128 36" fill="none" xmlns="http://www.w3.org/2000/svg">
<path d="M101.958 19.9502C101.133 19.9502 100.4 20.2225 99.8496 20.7672C99.2995 21.4026 99.0244 22.2195 99.0244 23.0365C99.0244 23.8534 99.2995 24.6704 99.8496 25.3058C100.4 25.8504 101.133 26.2135 101.958 26.1228C102.784 26.1228 103.517 25.8504 104.067 25.3058C104.617 24.6704 104.893 23.8534 104.893 23.0365C104.893 22.2195 104.617 21.4026 104.067 20.7672C103.426 20.2225 102.692 19.9502 101.958 19.9502Z" fill="#38C86E"/>
<path d="M42.7286 26.0315H38.9694V17.4081H35.6685V26.0315H31.9092V17.4081H28.6084V28.7547H46.0295V17.4081H42.7286V26.0315Z" fill="#51CF80"/>
<path d="M23.2898 18.0433C22.2812 17.4987 21.1809 17.3172 20.0806 17.3172C18.9803 17.3172 17.8801 17.5895 16.8715 18.0433C15.9546 18.4972 15.1294 19.2234 14.6709 20.1311C14.1208 21.0388 13.8457 22.0373 13.8457 23.1266C13.8457 24.2159 14.1208 25.2144 14.6709 26.1221C15.2211 27.0298 15.9546 27.756 16.8715 28.2099C17.8801 28.7545 18.9803 28.936 20.0806 28.936C21.1809 28.936 22.2812 28.6637 23.2898 28.2099C24.2067 27.756 24.9402 27.0298 25.4903 26.1221C26.0405 25.2144 26.3155 24.2159 26.3155 23.1266C26.3155 22.0373 26.0405 21.0388 25.4903 20.1311C24.9402 19.2234 24.2067 18.4972 23.2898 18.0433ZM22.1895 25.3959C21.6393 25.9405 20.9058 26.3036 20.0806 26.2129C19.2554 26.2129 18.5219 25.9405 17.9717 25.3959C17.4216 24.7605 17.1465 23.9436 17.1465 23.1266C17.1465 22.3097 17.4216 21.4927 17.9717 20.8573C18.5219 20.3127 19.2554 19.9496 20.0806 20.0403C20.9058 20.0403 21.6393 20.3127 22.1895 20.8573C22.7396 21.4927 23.0147 22.3097 23.0147 23.1266C23.0147 23.9436 22.7396 24.7605 22.1895 25.3959Z" fill="#51CF80"/>
<path d="M13.3867 14.0526H9.81081L5.86815 19.9529H3.39252V14.0526H0V28.7578H3.39252V22.8576H5.77646L9.62743 28.7578H13.5701L8.52715 21.1329L13.3867 14.0526Z" fill="#51CF80"/>
<path d="M82.9782 21.039H80.1358V17.4081H76.835V28.6639H82.5197C83.8034 28.7547 85.1787 28.3916 86.279 27.6654C87.1959 26.9392 87.6544 25.8499 87.5627 24.7607C87.6544 23.6714 87.1959 22.6729 86.3707 22.0375C85.3621 21.3113 84.1701 20.9482 82.9782 21.039ZM83.7117 26.0315C83.2532 26.3038 82.7948 26.4854 82.2447 26.3946H80.1358V23.1268H82.2447C82.7948 23.1268 83.2532 23.2175 83.7117 23.4899C84.0785 23.7622 84.2618 24.216 84.1701 24.6699C84.2618 25.2145 84.0785 25.6684 83.7117 26.0315Z" fill="#51CF80"/>
<path d="M57.3072 17.953C56.3903 17.4991 55.29 17.2268 54.2814 17.2268C53.1811 17.2268 52.1725 17.4991 51.1639 17.953C50.247 18.4068 49.5135 19.133 48.9634 20.0408C48.4133 20.9485 48.1382 21.947 48.1382 23.0362C48.1382 24.1255 48.4133 25.124 48.9634 26.0317C49.5135 26.9395 50.3387 27.6656 51.2556 28.1195C52.3559 28.6641 53.4562 28.8457 54.6482 28.8457C56.3903 28.9364 58.1324 28.301 59.3243 27.0302L57.5822 25.124C57.2155 25.4871 56.757 25.7594 56.2986 25.941C55.7484 26.1225 55.29 26.2133 54.7399 26.2133C54.0063 26.2133 53.1811 26.0317 52.5393 25.5779C51.9892 25.2148 51.5307 24.5794 51.439 23.944H60.0579C60.0579 23.3993 60.1496 23.127 60.1496 23.0362C60.1496 21.947 59.8745 20.8577 59.416 19.95C58.9576 19.133 58.2241 18.4068 57.3072 17.953ZM51.5307 22.1285C51.6224 21.4931 51.9892 20.8577 52.4476 20.4038C52.9977 19.95 53.6396 19.7684 54.3731 19.7684C55.0149 19.7684 55.7484 19.95 56.2069 20.4038C56.757 20.8577 57.0321 21.4931 57.1238 22.1285H51.5307Z" fill="#51CF80"/>
<path d="M63.7238 21.9467C63.7238 22.6729 63.6321 23.3991 63.5404 24.1253C63.4487 24.5791 63.2653 25.033 63.082 25.4869C62.8069 25.8499 62.4401 26.0315 61.9817 26.0315C61.7983 26.0315 61.6149 26.0315 61.5232 26.0315L61.3398 28.7547C61.89 28.9362 62.4401 29.027 63.082 29.027C63.9072 29.027 64.6407 28.7547 65.1908 28.21C65.741 27.5746 66.1077 26.7577 66.2911 25.9407C66.5662 24.7607 66.6579 23.4899 66.7495 22.219L66.8412 20.2221H70.4171V28.8454H73.718V17.4081H63.9989L63.7238 21.9467Z" fill="#51CF80"/>
<path d="M127.908 29.936L128 14.2324C128 12.4169 127.083 10.6922 125.616 9.60296L120.757 1.70576C120.39 1.07035 119.473 0.798035 118.831 1.2519L115.255 3.43043L113.605 0.707263C113.238 0.0718557 112.321 -0.200461 111.679 0.162628L97.8342 8.51369H95.6336C94.9001 8.51369 94.2583 7.87828 94.1666 7.1521C94.1666 6.42592 94.8084 5.79052 95.6336 5.79052H98.2926C99.1179 5.79052 99.7597 5.15511 99.7597 4.33816C99.7597 3.52121 99.1179 2.8858 98.2926 2.8858H95.6336C93.6165 2.8858 91.8744 4.24739 91.4159 6.15361C91.3242 6.33515 91.3242 6.5167 91.3242 6.69824V7.1521L91.5076 30.1175C91.5076 33.2946 94.0749 35.8362 97.2841 35.8362H122.499C124.974 35.927 127.175 34.3838 128 32.1145C128 31.4791 128 30.6622 127.908 29.936ZM115.53 21.8572L118.648 17.5002H122.132L118.189 22.9465L122.407 28.8467H118.464L115.439 24.5804H113.697V28.8467H110.396V17.4094H113.697V21.8572H115.53ZM108.195 23.128C108.195 24.2173 107.92 25.2158 107.37 26.1235C106.82 27.0313 106.086 27.7574 105.169 28.2113C104.161 28.7559 103.061 28.9375 101.96 28.9375C100.86 28.9375 99.7597 28.6652 98.7511 28.2113C97.8342 27.7574 97.009 27.0313 96.5505 26.1235C96.0004 25.2158 95.7253 24.2173 95.7253 23.128C95.7253 22.0388 96.0004 21.0403 96.5505 20.1326C97.1007 19.2248 97.8342 18.4987 98.7511 18.0448C99.7597 17.5002 100.86 17.3186 101.96 17.3186C103.061 17.3186 104.161 17.5909 105.169 18.0448C106.086 18.4987 106.82 19.2248 107.37 20.1326C107.92 20.9495 108.195 22.0388 108.195 23.128ZM119.015 4.42893L121.582 8.60446H118.189L116.631 5.97206L119.015 4.42893ZM111.771 3.43043L113.33 5.97206C113.33 6.06283 113.421 6.15361 113.421 6.15361C113.421 6.24438 113.513 6.24438 113.513 6.33515L114.889 8.60446H103.244L111.771 3.43043Z" fill="#38C86E"/>
</svg>
