<svg width="175" height="34" viewBox="0 0 175 34" fill="none" xmlns="http://www.w3.org/2000/svg">
<mask id="mask0" mask-type="alpha" maskUnits="userSpaceOnUse" x="59" y="8" width="17" height="17">
<path d="M70.1823 19.6242C70.9798 18.8255 71.3216 17.7987 71.3216 16.5436C71.3216 15.2886 70.9798 14.2617 70.1823 13.4631C69.3848 12.6644 68.4733 12.3221 67.334 12.3221C66.1947 12.3221 65.2832 12.7785 64.4857 13.5772C63.6881 14.3758 63.3464 15.4027 63.3464 16.6577C63.3464 17.9128 63.6881 18.9396 64.4857 19.7383C65.2832 20.5369 66.1947 20.8792 67.334 20.8792C68.4733 20.8792 69.4987 20.4228 70.1823 19.6242ZM71.2077 9.81208C72.4609 10.4966 73.3724 11.4094 74.056 12.6644C74.7396 13.8054 75.0814 15.1745 75.0814 16.5436C75.0814 17.9128 74.7396 19.2819 74.056 20.4228C73.3724 21.6779 72.4609 22.5906 71.2077 23.2752C70.0684 23.9597 68.7012 24.302 67.334 24.302C65.2832 24.302 63.4603 23.5034 61.9792 22.0201C60.498 20.5369 59.8145 18.7114 59.8145 16.5436C59.8145 14.2617 60.612 12.3221 62.321 10.7248C63.8021 9.3557 65.5111 8.67114 67.334 8.67114C68.7012 8.78523 69.9544 9.12752 71.2077 9.81208Z" fill="white"/>
</mask>
<g mask="url(#mask0)">
<path d="M57.4219 26.698H77.36V6.38926H57.4219V26.698Z" fill="#3CAD2B"/>
</g>
<mask id="mask1" mask-type="alpha" maskUnits="userSpaceOnUse" x="92" y="8" width="17" height="17">
<path d="M96.7285 14.7181H104.704C104.476 13.9195 104.02 13.2349 103.223 12.6644C102.539 12.094 101.742 11.8658 100.716 11.8658C99.6908 11.8658 98.7793 12.2081 97.9818 12.7785C97.526 13.1208 97.0703 13.8054 96.7285 14.7181ZM100.488 8.78524C102.767 8.78524 104.704 9.58389 106.071 11.0671C107.552 12.5503 108.236 14.4899 108.236 17V17.6846H96.5006C96.6146 18.7114 97.0703 19.6242 97.8678 20.1946C98.5514 20.7651 99.5768 21.1074 100.716 21.1074C102.083 21.1074 103.223 20.651 104.248 19.6242L107.324 21.1074C106.527 22.2483 105.615 23.047 104.59 23.5034C103.564 24.0738 102.197 24.302 100.716 24.302C98.4375 24.302 96.6146 23.6175 95.1335 22.1342C93.6523 20.651 92.9688 18.8255 92.9688 16.6577C92.9688 14.3758 93.6523 12.5503 95.1335 11.0671C96.6146 9.4698 98.3236 8.78524 100.488 8.78524Z" fill="white"/>
</mask>
<g mask="url(#mask1)">
<path d="M90.6899 26.698H110.628V6.38926H90.6899V26.698Z" fill="#3CAD2B"/>
</g>
<mask id="mask2" mask-type="alpha" maskUnits="userSpaceOnUse" x="125" y="9" width="16" height="15">
<path d="M136.719 9.12752H140.479L134.326 23.9597H131.934L125.667 9.12752H129.427L133.073 17.7987L136.719 9.12752Z" fill="white"/>
</mask>
<g mask="url(#mask2)">
<path d="M123.275 26.2416H142.757V6.84564H123.275V26.2416Z" fill="#3CAD2B"/>
</g>
<mask id="mask3" mask-type="alpha" maskUnits="userSpaceOnUse" x="140" y="8" width="16" height="17">
<path d="M144.124 14.7181H152.1C151.872 13.9195 151.416 13.2349 150.618 12.6644C149.935 12.094 149.137 11.8658 148.112 11.8658C147.087 11.8658 146.175 12.2081 145.378 12.7785C145.036 13.1208 144.58 13.8054 144.124 14.7181ZM147.998 8.78524C150.277 8.78524 152.214 9.58389 153.581 11.0671C155.062 12.5503 155.745 14.4899 155.745 17V17.6846H144.01C144.124 18.7114 144.58 19.6242 145.378 20.1946C146.061 20.7651 147.087 21.1074 148.226 21.1074C149.593 21.1074 150.732 20.651 151.758 19.6242L154.834 21.1074C154.036 22.2483 153.125 23.047 152.1 23.5034C151.074 24.0738 149.707 24.302 148.226 24.302C145.947 24.302 144.124 23.6175 142.643 22.1342C141.162 20.651 140.479 18.8255 140.479 16.6577C140.479 14.3758 141.162 12.5503 142.643 11.0671C144.01 9.4698 145.833 8.78524 147.998 8.78524Z" fill="white"/>
</mask>
<g mask="url(#mask3)">
<path d="M138.086 26.698H158.024V6.38926H138.086V26.698Z" fill="#3CAD2B"/>
</g>
<mask id="mask4" mask-type="alpha" maskUnits="userSpaceOnUse" x="157" y="8" width="16" height="17">
<path d="M167.822 19.6242C168.62 18.8255 168.962 17.7987 168.962 16.5436C168.962 15.2886 168.62 14.2617 167.822 13.4631C167.025 12.6644 166.113 12.3221 164.974 12.3221C163.835 12.3221 162.923 12.7785 162.126 13.5772C161.328 14.3758 160.986 15.4027 160.986 16.6577C160.986 17.9128 161.328 18.9396 162.126 19.7383C162.923 20.5369 163.835 20.8792 164.974 20.8792C166.113 20.8792 167.139 20.4228 167.822 19.6242ZM171.696 12.6644C172.38 13.8054 172.722 15.1745 172.722 16.5436C172.722 17.9128 172.38 19.2819 171.696 20.4228C171.013 21.6779 170.101 22.5906 168.848 23.2752C167.708 23.9597 166.341 24.302 164.974 24.302C162.923 24.302 161.1 23.5034 159.619 22.0201C158.138 20.5369 157.455 18.7114 157.455 16.5436C157.455 14.2617 158.252 12.3221 159.961 10.7248C161.442 9.3557 163.151 8.67114 164.974 8.67114C166.341 8.67114 167.595 9.01342 168.848 9.69799C170.101 10.4966 171.013 11.5235 171.696 12.6644Z" fill="white"/>
</mask>
<g mask="url(#mask4)">
<path d="M155.062 26.698H175V6.38926H155.062V26.698Z" fill="#3CAD2B"/>
</g>
<mask id="mask5" mask-type="alpha" maskUnits="userSpaceOnUse" x="76" y="8" width="16" height="16">
<path d="M84.0819 8.78524C88.0695 8.78524 91.3735 12.094 91.3735 16.2013V23.9597H87.7277V16.2013C87.7277 14.1477 86.0187 12.4362 83.9679 12.4362C81.9171 12.4362 80.2082 14.1477 80.2082 16.2013V23.9597H76.6763V16.2013C76.7902 12.094 79.9803 8.78524 84.0819 8.78524Z" fill="white"/>
</mask>
<g mask="url(#mask5)">
<path d="M74.3979 26.2416H93.6525V6.50336H74.3979V26.2416Z" fill="#3CAD2B"/>
</g>
<mask id="mask6" mask-type="alpha" maskUnits="userSpaceOnUse" x="32" y="8" width="27" height="16">
<path d="M50.8136 8.78524C54.8013 8.78524 58.1053 12.094 58.1053 16.2013V23.9597H54.5734V16.2013C54.5734 14.1477 52.8644 12.4362 50.8136 12.4362C48.7629 12.4362 47.0539 14.1477 47.0539 16.2013V23.9597H46.9399H43.408H43.2941V16.2013C43.2941 14.1477 41.5851 12.4362 39.5343 12.4362C37.4836 12.4362 35.7746 14.1477 35.7746 16.2013V23.9597H32.2427V16.2013C32.2427 12.094 35.5467 8.78524 39.5343 8.78524C41.6991 8.78524 43.7498 9.81208 45.117 11.4094C46.5981 9.81208 48.535 8.78524 50.8136 8.78524Z" fill="white"/>
</mask>
<g mask="url(#mask6)">
<path d="M30.0781 26.2416H60.3841V6.50336H30.0781V26.2416Z" fill="#3CAD2B"/>
</g>
<mask id="mask7" mask-type="alpha" maskUnits="userSpaceOnUse" x="109" y="9" width="16" height="23">
<path d="M120.996 12.094V9.12752H124.528V11.9799V16.7718V24.1879C124.528 28.1812 121.224 31.4899 117.236 31.4899V27.8389C119.287 27.8389 120.996 26.1275 120.996 24.0738V23.1611C119.857 23.8456 118.604 24.1879 117.236 24.1879C113.249 24.1879 109.945 20.8792 109.945 16.7718V9.12752H113.477V16.8859C113.477 18.9396 115.186 20.651 117.236 20.651C119.287 20.651 120.996 18.9396 120.996 16.8859V12.094Z" fill="white"/>
</mask>
<g mask="url(#mask7)">
<path d="M107.552 34H126.807V6.84564H107.552V34Z" fill="#3CAD2B"/>
</g>
<mask id="mask8" mask-type="alpha" maskUnits="userSpaceOnUse" x="10" y="8" width="18" height="16">
<path d="M16.0645 8.10067H27.6855L21.875 23.7315H10.2539L16.0645 8.10067Z" fill="white"/>
</mask>
<g mask="url(#mask8)">
<path d="M7.9751 26.1275H30.078V5.7047H7.9751V26.1275Z" fill="#915FFF"/>
</g>
<mask id="mask9" mask-type="alpha" maskUnits="userSpaceOnUse" x="2" y="2" width="20" height="22">
<path d="M13.8999 2.39597L21.8752 23.7315H10.2541L2.27881 2.39597H13.8999Z" fill="white"/>
</mask>
<g mask="url(#mask9)">
<path d="M0 26.1275H24.1536V0H0V26.1275Z" fill="#3CAD2B"/>
</g>
<mask id="mask10" mask-type="alpha" maskUnits="userSpaceOnUse" x="10" y="8" width="12" height="16">
<path d="M10.2539 23.7315L16.0645 8.21476L21.875 23.8456L10.2539 23.7315Z" fill="white"/>
</mask>
<g mask="url(#mask10)">
<path d="M7.9751 26.1275H24.1535V5.81879H7.9751V26.1275Z" fill="#2C608A"/>
</g>
</svg>
