<svg width="228" height="52" viewBox="0 0 228 52" fill="none" xmlns="http://www.w3.org/2000/svg">
<path d="M92.3 11.53C92.3 11.71 92.29 11.9 92.27 12.1C92.27 12.28 92.26 12.47 92.24 12.67L92.21 12.94C92.05 14.36 91.67 15.54 91.07 16.48C90.47 17.4 89.71 18.14 88.79 18.7C87.89 19.26 86.85 19.65 85.67 19.87C84.51 20.09 83.28 20.2 81.98 20.2C81.62 20.2 81.22 20.19 80.78 20.17C80.34 20.15 79.93 20.13 79.55 20.11L78.29 27.4C78.25 27.56 78.16 27.7 78.02 27.82C77.88 27.94 77.73 28 77.57 28H73.7C73.36 28 73.19 27.84 73.19 27.52V27.43L76.76 7.27C76.86 6.75 77.03 6.4 77.27 6.22C77.51 6.04 77.87 5.91 78.35 5.83C79.13 5.71 80.08 5.62 81.2 5.56C82.34 5.48 83.45 5.44 84.53 5.44C85.67 5.44 86.71 5.56 87.65 5.8C88.61 6.02 89.43 6.38 90.11 6.88C90.81 7.38 91.35 8.01 91.73 8.77C92.11 9.53 92.3 10.45 92.3 11.53ZM87.17 12.1C87.17 11.24 86.9 10.63 86.36 10.27C85.82 9.89 84.98 9.7 83.84 9.7C83.74 9.7 83.57 9.71 83.33 9.73C83.09 9.73 82.84 9.74 82.58 9.76C82.32 9.76 82.07 9.77 81.83 9.79C81.61 9.79 81.46 9.79 81.38 9.79L80.3 15.91C80.38 15.91 80.53 15.92 80.75 15.94C80.99 15.94 81.24 15.95 81.5 15.97C81.78 15.97 82.03 15.97 82.25 15.97C82.49 15.97 82.65 15.97 82.73 15.97C85.41 15.97 86.87 14.96 87.11 12.94L87.14 12.67C87.16 12.57 87.17 12.48 87.17 12.4C87.17 12.3 87.17 12.2 87.17 12.1ZM101.596 10.57C102.616 10.57 103.656 10.63 104.716 10.75C105.796 10.87 106.826 11.06 107.806 11.32C108.146 11.42 108.366 11.52 108.466 11.62C108.586 11.72 108.626 11.92 108.586 12.22L105.946 27.4C105.906 27.56 105.836 27.7 105.736 27.82C105.656 27.94 105.496 28 105.256 28H102.196C102.036 28 101.896 27.95 101.776 27.85C101.676 27.75 101.646 27.6 101.686 27.4L101.806 26.53C100.986 27.17 100.206 27.62 99.4658 27.88C98.7258 28.14 97.9558 28.27 97.1558 28.27C96.2558 28.27 95.4858 28.11 94.8458 27.79C94.2058 27.47 93.6858 27.05 93.2858 26.53C92.8858 25.99 92.5858 25.38 92.3858 24.7C92.2058 24 92.1158 23.27 92.1158 22.51C92.1158 22.23 92.1258 21.95 92.1458 21.67C92.1858 21.39 92.2258 21.11 92.2658 20.83C92.3258 20.39 92.3958 19.99 92.4758 19.63C92.5358 19.31 92.5858 19 92.6258 18.7C92.6658 18.4 92.7058 18.17 92.7458 18.01C93.2058 15.39 94.2058 13.5 95.7458 12.34C97.2858 11.16 99.2358 10.57 101.596 10.57ZM103.276 14.74C102.996 14.7 102.646 14.66 102.226 14.62C101.806 14.58 101.386 14.56 100.966 14.56C99.8858 14.56 99.0958 14.87 98.5958 15.49C98.1158 16.11 97.7658 17.03 97.5458 18.25L97.0058 21.4C96.9458 21.74 96.9158 22.07 96.9158 22.39C96.9158 22.89 97.0258 23.32 97.2458 23.68C97.4858 24.04 97.9458 24.22 98.6258 24.22C99.1458 24.22 99.6758 24.12 100.216 23.92C100.776 23.7 101.306 23.45 101.806 23.17L103.276 14.74ZM125.957 15.55C125.957 16.11 125.897 16.72 125.777 17.38L124.037 27.37C123.997 27.53 123.897 27.68 123.737 27.82C123.597 27.94 123.447 28 123.287 28H119.657C119.497 28 119.377 27.95 119.297 27.85C119.217 27.75 119.177 27.63 119.177 27.49V27.37L120.917 17.38C121.017 16.82 121.067 16.38 121.067 16.06C121.067 15.5 120.907 15.12 120.587 14.92C120.287 14.7 119.907 14.59 119.447 14.59C118.867 14.59 118.267 14.7 117.647 14.92C117.027 15.14 116.547 15.35 116.207 15.55L114.137 27.37C114.097 27.53 114.007 27.68 113.867 27.82C113.727 27.94 113.577 28 113.417 28H109.787C109.627 28 109.497 27.95 109.397 27.85C109.317 27.75 109.277 27.62 109.277 27.46V27.37L112.097 11.41C112.137 11.25 112.217 11.11 112.337 10.99C112.477 10.87 112.627 10.81 112.787 10.81H116.057C116.397 10.81 116.567 10.98 116.567 11.32V11.41L116.447 12.13C117.127 11.61 117.877 11.22 118.697 10.96C119.517 10.7 120.327 10.57 121.127 10.57C121.767 10.57 122.377 10.67 122.957 10.87C123.557 11.05 124.077 11.34 124.517 11.74C124.957 12.14 125.307 12.66 125.567 13.3C125.827 13.92 125.957 14.67 125.957 15.55ZM152.607 6.61L152.097 9.52C152.037 9.92 151.797 10.12 151.377 10.12H151.347H151.317C150.757 10.08 150.097 10.03 149.337 9.97C148.577 9.91 147.777 9.88 146.937 9.88C146.417 9.88 145.917 9.96 145.437 10.12C144.957 10.26 144.517 10.53 144.117 10.93C143.717 11.31 143.357 11.83 143.037 12.49C142.737 13.13 142.497 13.95 142.317 14.95L141.627 18.73C141.507 19.43 141.447 20.04 141.447 20.56C141.447 21.8 141.737 22.65 142.317 23.11C142.897 23.57 143.617 23.8 144.477 23.8C145.317 23.8 146.127 23.77 146.907 23.71C147.687 23.65 148.367 23.6 148.947 23.56H149.037C149.377 23.56 149.547 23.71 149.547 24.01C149.547 24.03 149.537 24.05 149.517 24.07C149.517 24.09 149.517 24.12 149.517 24.16L148.977 27.07C148.937 27.29 148.847 27.45 148.707 27.55C148.587 27.63 148.417 27.7 148.197 27.76C147.857 27.86 147.277 27.97 146.457 28.09C145.637 28.21 144.697 28.27 143.637 28.27C142.657 28.27 141.717 28.12 140.817 27.82C139.917 27.52 139.127 27.07 138.447 26.47C137.767 25.85 137.227 25.09 136.827 24.19C136.427 23.27 136.227 22.19 136.227 20.95C136.227 20.61 136.237 20.26 136.257 19.9C136.297 19.52 136.357 19.13 136.437 18.73L137.127 14.95C137.487 12.97 138.007 11.37 138.687 10.15C139.387 8.91 140.197 7.94 141.117 7.24C142.057 6.54 143.087 6.07 144.207 5.83C145.327 5.57 146.487 5.44 147.687 5.44C148.747 5.44 149.667 5.5 150.447 5.62C151.227 5.74 151.767 5.85 152.067 5.95C152.247 6.01 152.377 6.07 152.457 6.13C152.557 6.19 152.607 6.3 152.607 6.46V6.55V6.61ZM164.233 11.17L163.723 14.02C163.683 14.16 163.613 14.29 163.513 14.41C163.433 14.53 163.323 14.59 163.183 14.59H162.943C162.203 14.59 161.493 14.69 160.813 14.89C160.133 15.09 159.493 15.34 158.893 15.64L156.823 27.37C156.783 27.53 156.693 27.68 156.553 27.82C156.413 27.94 156.263 28 156.103 28H152.473C152.313 28 152.183 27.95 152.083 27.85C152.003 27.75 151.963 27.63 151.963 27.49V27.37L154.783 11.41C154.823 11.25 154.903 11.11 155.023 10.99C155.163 10.87 155.313 10.81 155.473 10.81H159.043C159.383 10.81 159.553 10.97 159.553 11.29V11.41L159.433 12.01C160.173 11.39 160.873 11 161.533 10.84C162.193 10.66 162.923 10.57 163.723 10.57C164.063 10.57 164.233 10.74 164.233 11.08V11.17ZM179.649 16.84C179.649 17.1 179.629 17.37 179.589 17.65C179.569 17.91 179.539 18.18 179.499 18.46L179.199 20.2C179.099 20.68 178.849 20.92 178.449 20.92H168.819C168.779 21.14 168.749 21.36 168.729 21.58C168.709 21.78 168.699 21.97 168.699 22.15C168.699 22.93 168.899 23.48 169.299 23.8C169.719 24.1 170.409 24.25 171.369 24.25C171.849 24.25 172.359 24.24 172.899 24.22C173.459 24.2 173.999 24.18 174.519 24.16C175.059 24.12 175.559 24.09 176.019 24.07C176.499 24.03 176.889 24 177.189 23.98C177.429 23.96 177.589 23.98 177.669 24.04C177.769 24.1 177.799 24.24 177.759 24.46L177.339 26.74C177.299 26.98 177.229 27.16 177.129 27.28C177.049 27.4 176.869 27.49 176.589 27.55C175.589 27.79 174.609 27.97 173.649 28.09C172.709 28.21 171.589 28.27 170.289 28.27C169.469 28.27 168.679 28.15 167.919 27.91C167.179 27.67 166.509 27.31 165.909 26.83C165.329 26.33 164.859 25.7 164.499 24.94C164.159 24.18 163.989 23.28 163.989 22.24C163.989 21.98 163.999 21.71 164.019 21.43C164.059 21.15 164.099 20.86 164.139 20.56L164.499 18.46C164.959 15.84 165.949 13.87 167.469 12.55C168.989 11.23 170.989 10.57 173.469 10.57C174.489 10.57 175.379 10.73 176.139 11.05C176.919 11.37 177.569 11.82 178.089 12.4C178.609 12.96 178.999 13.62 179.259 14.38C179.519 15.14 179.649 15.96 179.649 16.84ZM175.119 16.6C175.119 15.9 174.939 15.37 174.579 15.01C174.219 14.65 173.619 14.47 172.779 14.47C171.759 14.47 170.979 14.79 170.439 15.43C169.919 16.05 169.549 16.88 169.329 17.92H174.969C175.009 17.68 175.039 17.45 175.059 17.23C175.099 17.01 175.119 16.8 175.119 16.6ZM198.664 4.99C199.104 4.99 199.284 5.19 199.204 5.59L195.484 26.62C195.444 26.86 195.354 27.04 195.214 27.16C195.094 27.28 194.824 27.39 194.404 27.49C193.504 27.71 192.484 27.89 191.344 28.03C190.204 28.19 189.054 28.27 187.894 28.27C186.894 28.27 186.004 28.12 185.224 27.82C184.444 27.52 183.784 27.1 183.244 26.56C182.724 26.02 182.324 25.38 182.044 24.64C181.764 23.88 181.624 23.05 181.624 22.15C181.624 21.89 181.634 21.64 181.654 21.4C181.674 21.14 181.704 20.87 181.744 20.59L182.134 18.25C182.374 16.87 182.724 15.7 183.184 14.74C183.644 13.76 184.234 12.96 184.954 12.34C185.694 11.72 186.564 11.27 187.564 10.99C188.564 10.71 189.714 10.57 191.014 10.57C191.314 10.57 191.684 10.59 192.124 10.63C192.584 10.67 193.024 10.72 193.444 10.78L194.374 5.59C194.414 5.43 194.484 5.29 194.584 5.17C194.684 5.05 194.844 4.99 195.064 4.99H198.664ZM192.754 14.74C192.414 14.7 192.014 14.67 191.554 14.65C191.094 14.61 190.684 14.59 190.324 14.59C189.784 14.59 189.324 14.67 188.944 14.83C188.564 14.97 188.244 15.19 187.984 15.49C187.724 15.79 187.514 16.17 187.354 16.63C187.194 17.09 187.064 17.63 186.964 18.25L186.574 20.59C186.534 20.89 186.494 21.18 186.454 21.46C186.434 21.72 186.424 21.96 186.424 22.18C186.424 22.88 186.574 23.41 186.874 23.77C187.194 24.11 187.774 24.28 188.614 24.28C189.114 24.28 189.574 24.26 189.994 24.22C190.434 24.18 190.804 24.14 191.104 24.1L192.754 14.74ZM202.795 8.86C202.415 8.86 202.255 8.66 202.315 8.26L202.795 5.47C202.835 5.31 202.905 5.17 203.005 5.05C203.105 4.93 203.275 4.87 203.515 4.87H207.415C207.815 4.87 207.975 5.07 207.895 5.47L207.415 8.26C207.375 8.42 207.305 8.56 207.205 8.68C207.105 8.8 206.935 8.86 206.695 8.86H202.795ZM206.245 10.81C206.405 10.81 206.535 10.86 206.635 10.96C206.755 11.04 206.795 11.19 206.755 11.41L203.935 27.4C203.895 27.56 203.825 27.7 203.725 27.82C203.645 27.94 203.475 28 203.215 28H199.555C199.175 28 199.015 27.8 199.075 27.4L201.895 11.41C201.935 11.25 202.015 11.11 202.135 10.99C202.275 10.87 202.425 10.81 202.585 10.81H206.245ZM220.346 11.41L219.896 13.84C219.856 14 219.766 14.14 219.626 14.26C219.506 14.38 219.366 14.44 219.206 14.44H216.746L215.186 23.17C215.126 23.53 215.096 23.81 215.096 24.01C215.096 24.23 215.156 24.38 215.276 24.46C215.396 24.54 215.616 24.58 215.936 24.58H217.406C217.566 24.58 217.696 24.61 217.796 24.67C217.896 24.73 217.946 24.84 217.946 25V25.09L217.526 27.43C217.466 27.77 217.246 27.97 216.866 28.03C216.406 28.11 215.996 28.17 215.636 28.21C215.276 28.25 214.876 28.27 214.436 28.27C213.056 28.27 211.996 28 211.256 27.46C210.536 26.92 210.176 25.99 210.176 24.67C210.176 24.45 210.186 24.21 210.206 23.95C210.246 23.69 210.286 23.42 210.326 23.14L211.856 14.44L209.516 14.05C209.176 13.99 209.006 13.81 209.006 13.51V13.42L209.336 11.44C209.376 11.28 209.466 11.14 209.606 11.02C209.766 10.88 209.926 10.81 210.086 10.81H212.486L212.906 8.35C212.946 8.19 213.026 8.06 213.146 7.96C213.286 7.86 213.446 7.79 213.626 7.75L217.406 7.12H217.496C217.796 7.12 217.946 7.26 217.946 7.54V7.63L217.376 10.81H219.836C220.176 10.81 220.346 10.98 220.346 11.32V11.41Z" fill="#211A1D"/>
<path d="M58.2159 9.87398L58.9467 5.7144C59.2914 3.66939 57.9264 2 55.9133 2H26.5578C24.6549 2 22.8211 3.57201 22.4902 5.49182L21.5939 10.5835H2.30393C1.31116 10.5835 0.345974 11.4043 0.180513 12.4059L0.0288409 13.2823C-0.150408 14.284 0.525224 15.1047 1.51799 15.1047H33.8242C34.817 15.1047 35.4926 15.9255 35.3134 16.9272L35.1617 17.8036C34.9825 18.8052 34.0311 19.626 33.0383 19.626H12.7004C11.7076 19.626 10.7424 20.4468 10.577 21.4484L10.4253 22.3249C10.2461 23.3265 10.9217 24.1473 11.9145 24.1473H32.2386C33.2313 24.1473 33.907 24.9681 33.7277 25.9697L33.5761 26.8462C33.3968 27.8478 32.4454 28.6686 31.4526 28.6686H17.1403C15.2375 28.6686 13.1416 36 20.7528 36H51.239C52.5627 36 53.845 34.901 54.0794 33.5655L55.1411 27.4583C54.7826 27.5696 54.4241 27.6252 54.0518 27.6252H46.8681C44.9791 27.6252 43.7243 26.081 44.0552 24.1751L44.6895 20.5303C45.0204 18.6244 46.8267 17.0802 48.7019 17.0802H55.8857C56.258 17.0802 56.6027 17.1358 56.9198 17.2471L57.7747 12.392L57.8161 12.1833C58.0229 11.0286 57.3749 10.0548 56.3545 9.81833C56.1891 9.7766 56.0098 9.74877 55.8306 9.74877H25.9373C24.6136 9.74877 23.7173 8.64976 23.9517 7.31424L24.1034 6.43781C24.3378 5.10229 25.6201 4.00327 26.9438 4.00327H54.9481C56.2718 4.00327 57.168 5.10229 56.9336 6.43781L56.52 8.77496C57.5265 8.99755 57.8299 9.16448 58.2159 9.87398Z" fill="#6320EE"/>
<path d="M55.7065 18.1097H48.5227C47.199 18.1097 45.9167 19.2087 45.6823 20.5442L45.048 24.189C44.8136 25.5246 45.7099 26.6236 47.0335 26.6236H54.2173C55.541 26.6236 56.8233 25.5246 57.0577 24.189L57.692 20.5442C57.9264 19.2087 57.0439 18.1097 55.7065 18.1097ZM50.2187 22.3666C50.0808 23.1735 49.3086 23.8412 48.5089 23.8412C47.7092 23.8412 47.1714 23.1874 47.3093 22.3666C47.4472 21.5597 48.2193 20.892 49.0191 20.892C49.8188 20.892 50.3566 21.5458 50.2187 22.3666Z" fill="#6320EE"/>
<path d="M53.8726 5.1162H28.5295C27.6057 5.1162 26.7094 5.86743 26.5164 6.79951L26.1717 8.53846H54.8378L55.1963 6.7856C55.3755 5.86743 54.7826 5.1162 53.8726 5.1162Z" fill="#6320EE"/>
<path d="M71.728 46.998C71.5027 46.0707 71.5113 45.1737 71.754 44.307C71.9967 43.4403 72.508 42.8207 73.288 42.448C73.7213 42.24 74.2283 42.136 74.809 42.136C75.3897 42.136 75.8967 42.24 76.33 42.448C77.11 42.812 77.6257 43.462 77.877 44.398C77.9897 44.8313 78.046 45.269 78.046 45.711C78.0547 46.1443 78.0027 46.5733 77.89 46.998C77.786 47.414 77.5997 47.7953 77.331 48.142C77.071 48.4887 76.7373 48.7617 76.33 48.961C75.888 49.1603 75.381 49.26 74.809 49.26C74.237 49.26 73.73 49.1603 73.288 48.961C72.534 48.597 72.014 47.9427 71.728 46.998ZM72.937 44.385C72.8243 44.7317 72.768 45.165 72.768 45.685C72.768 46.1963 72.8243 46.634 72.937 46.998C73.0497 47.362 73.1797 47.635 73.327 47.817C73.639 48.1637 73.9943 48.3673 74.393 48.428C74.6703 48.4713 74.9477 48.4713 75.225 48.428C75.3463 48.4193 75.5153 48.3587 75.732 48.246C75.966 48.1247 76.1567 47.973 76.304 47.791C76.4513 47.609 76.577 47.3447 76.681 46.998C76.7937 46.634 76.85 46.1963 76.85 45.685C76.85 45.165 76.7937 44.7317 76.681 44.385C76.5597 44.0037 76.4253 43.7307 76.278 43.566C76.1393 43.4013 75.966 43.2627 75.758 43.15C75.55 43.0373 75.3723 42.968 75.225 42.942C74.9477 42.8987 74.6703 42.8987 74.393 42.942C74.2717 42.9507 74.0983 43.0157 73.873 43.137C73.431 43.3537 73.119 43.7697 72.937 44.385ZM84.3502 45.919H81.0872V49H79.9432V42.396H81.0872V45.113H84.3502V42.396H85.4942V49H84.3502V45.919ZM86.9929 49V48.155C87.6429 48.3457 88.1023 48.038 88.3709 47.232C88.4403 47.0327 88.4879 46.7857 88.5139 46.491L88.5659 45.698C88.5746 45.5593 88.5789 45.2863 88.5789 44.879V42.396H93.1549V49H92.0109V43.202H89.6449V44.879C89.6449 45.425 89.6319 45.8843 89.6059 46.257C89.5799 46.621 89.5149 47.0197 89.4109 47.453C89.2636 48.0683 88.9993 48.506 88.6179 48.766C88.2366 49.026 87.6949 49.104 86.9929 49ZM96.2827 44.346H95.1907C95.1907 43.826 95.364 43.3493 95.7107 42.916C96.1267 42.396 96.8893 42.136 97.9987 42.136C98.6487 42.136 99.2207 42.266 99.7147 42.526C100.001 42.6647 100.226 42.8943 100.391 43.215C100.555 43.5357 100.633 43.917 100.625 44.359L100.56 47.414C100.56 47.6653 100.586 47.8603 100.638 47.999C100.716 48.1377 100.919 48.2027 101.249 48.194V49C101.119 49.0347 100.945 49.052 100.729 49.052C100.347 49.052 100.07 48.987 99.8967 48.857C99.732 48.727 99.615 48.4713 99.5457 48.09C99.121 48.87 98.367 49.26 97.2837 49.26C96.5383 49.26 95.962 49.0953 95.5547 48.766C95.156 48.428 94.9567 47.9297 94.9567 47.271C94.9567 46.647 95.182 46.1747 95.6327 45.854C96.0833 45.516 96.937 45.2907 98.1937 45.178C98.7743 45.1347 99.121 45.0783 99.2337 45.009C99.3983 44.8963 99.4807 44.6493 99.4807 44.268C99.4807 43.384 98.9867 42.942 97.9987 42.942C96.8287 42.942 96.2567 43.41 96.2827 44.346ZM99.4547 46.179L99.4807 45.62C99.3507 45.7153 99.16 45.7933 98.9087 45.854C98.5273 45.88 98.2327 45.9103 98.0247 45.945C97.3053 46.0663 96.8677 46.166 96.7117 46.244C96.3303 46.426 96.1397 46.7553 96.1397 47.232C96.1397 47.6133 96.2523 47.9123 96.4777 48.129C96.7117 48.3457 97.0237 48.454 97.4137 48.454C97.665 48.454 97.8947 48.4193 98.1027 48.35C98.3193 48.2807 98.5273 48.168 98.7267 48.012C98.9347 47.8473 99.0993 47.609 99.2207 47.297C99.3507 46.985 99.4287 46.6123 99.4547 46.179ZM104.131 42.396V47.661L107.576 42.396H108.85V49H107.706V43.722L104.274 49H102.987V42.396H104.131ZM107.147 39.9H108.122C107.94 40.8533 107.368 41.4123 106.406 41.577C106.242 41.603 106.068 41.616 105.886 41.616C104.768 41.616 104.053 41.161 103.741 40.251C103.715 40.1903 103.685 40.0733 103.65 39.9H104.625C104.599 40.1253 104.677 40.3377 104.859 40.537C104.989 40.6757 105.141 40.7797 105.314 40.849C105.47 40.901 105.661 40.927 105.886 40.927C106.259 40.927 106.567 40.836 106.809 40.654C107.052 40.4633 107.165 40.212 107.147 39.9ZM115.516 45.919H112.253V49H111.109V42.396H112.253V45.113H115.516V42.396H116.66V49H115.516V45.919ZM123.494 42.396V45.282L126.315 42.396H127.654L124.56 45.464L127.823 49H126.458L123.494 45.698V49H122.35V42.396H123.494ZM129.1 51.405V42.396H130.166V43.306H130.205C130.725 42.526 131.453 42.136 132.389 42.136C133.247 42.136 133.958 42.435 134.521 43.033C135.084 43.6397 135.366 44.528 135.366 45.698C135.366 46.894 135.08 47.7867 134.508 48.376C133.945 48.9653 133.247 49.26 132.415 49.26C132.155 49.26 131.839 49.2037 131.466 49.091C130.92 48.9263 130.513 48.5797 130.244 48.051V51.405H129.1ZM130.166 45.724C130.166 46.6427 130.374 47.3317 130.79 47.791C131.223 48.233 131.696 48.454 132.207 48.454C132.744 48.454 133.204 48.2373 133.585 47.804C133.966 47.3533 134.157 46.6513 134.157 45.698C134.157 44.8313 133.979 44.1553 133.624 43.67C133.277 43.1847 132.783 42.942 132.142 42.942C131.804 42.942 131.488 43.033 131.193 43.215C130.508 43.6223 130.166 44.4587 130.166 45.724ZM142.005 47.089H143.097C142.993 47.6697 142.711 48.1767 142.252 48.61C141.792 49.0433 141.112 49.26 140.211 49.26C138.989 49.26 138.092 48.857 137.52 48.051C137.234 47.6263 137.047 47.1713 136.961 46.686C136.9 46.348 136.87 46.0273 136.87 45.724C136.87 45.1433 136.956 44.5973 137.13 44.086C137.242 43.722 137.407 43.4057 137.624 43.137C137.858 42.851 138.191 42.6127 138.625 42.422C139.058 42.2313 139.548 42.136 140.094 42.136C141.064 42.136 141.797 42.4047 142.291 42.942C142.499 43.1673 142.668 43.4533 142.798 43.8C142.988 44.3027 143.105 44.9137 143.149 45.633C143.149 45.659 143.149 45.7153 143.149 45.802C143.157 45.8887 143.162 45.9407 143.162 45.958H138.079C138.079 46.6167 138.252 47.1973 138.599 47.7C138.945 48.2027 139.47 48.454 140.172 48.454C140.674 48.454 141.086 48.3283 141.407 48.077C141.727 47.8257 141.927 47.4963 142.005 47.089ZM138.079 45.152H141.953C141.944 44.6407 141.823 44.1683 141.589 43.735C141.32 43.2063 140.83 42.942 140.12 42.942C139.314 42.942 138.759 43.2107 138.456 43.748C138.204 44.1813 138.079 44.6493 138.079 45.152ZM144.219 50.716L144.115 48.194H144.947C145.666 47.1367 146.026 45.5723 146.026 43.501V42.396H150.758V48.194H151.902L151.811 50.716H150.849V49H145.181V50.716H144.219ZM149.614 48.194V43.202H147.092V44.125C147.092 44.827 147.014 45.555 146.858 46.309C146.719 47.0543 146.485 47.6827 146.156 48.194H149.614ZM154.418 42.396V47.661L157.863 42.396H159.137V49H157.993V43.722L154.561 49H153.274V42.396H154.418ZM162.916 49V43.202H160.628V42.396H166.348V43.202H164.06V49H162.916ZM167.612 49V42.396H168.756V45.009H170.42C170.949 45.009 171.391 45.061 171.746 45.165C172.596 45.3817 173.038 46.0013 173.072 47.024C173.072 47.6307 172.886 48.1117 172.513 48.467C172.149 48.8223 171.582 49 170.81 49H167.612ZM170.147 45.815H168.756V48.194H170.355C171.378 48.194 171.889 47.778 171.889 46.946C171.889 46.5387 171.755 46.244 171.486 46.062C171.4 45.9927 171.257 45.9363 171.057 45.893C170.849 45.841 170.546 45.815 170.147 45.815ZM173.878 49V42.396H175.022V49H173.878ZM185.192 43.202H181.851V49H180.707V42.396H186.336V49H185.192V43.202ZM188.392 46.998C188.166 46.0707 188.175 45.1737 188.418 44.307C188.66 43.4403 189.172 42.8207 189.952 42.448C190.385 42.24 190.892 42.136 191.473 42.136C192.053 42.136 192.56 42.24 192.994 42.448C193.774 42.812 194.289 43.462 194.541 44.398C194.653 44.8313 194.71 45.269 194.71 45.711C194.718 46.1443 194.666 46.5733 194.554 46.998C194.45 47.414 194.263 47.7953 193.995 48.142C193.735 48.4887 193.401 48.7617 192.994 48.961C192.552 49.1603 192.045 49.26 191.473 49.26C190.901 49.26 190.394 49.1603 189.952 48.961C189.198 48.597 188.678 47.9427 188.392 46.998ZM189.601 44.385C189.488 44.7317 189.432 45.165 189.432 45.685C189.432 46.1963 189.488 46.634 189.601 46.998C189.713 47.362 189.843 47.635 189.991 47.817C190.303 48.1637 190.658 48.3673 191.057 48.428C191.334 48.4713 191.611 48.4713 191.889 48.428C192.01 48.4193 192.179 48.3587 192.396 48.246C192.63 48.1247 192.82 47.973 192.968 47.791C193.115 47.609 193.241 47.3447 193.345 46.998C193.457 46.634 193.514 46.1963 193.514 45.685C193.514 45.165 193.457 44.7317 193.345 44.385C193.223 44.0037 193.089 43.7307 192.942 43.566C192.803 43.4013 192.63 43.2627 192.422 43.15C192.214 43.0373 192.036 42.968 191.889 42.942C191.611 42.8987 191.334 42.8987 191.057 42.942C190.935 42.9507 190.762 43.0157 190.537 43.137C190.095 43.3537 189.783 43.7697 189.601 44.385ZM195.775 50.716L195.671 48.194H196.503C197.222 47.1367 197.582 45.5723 197.582 43.501V42.396H202.314V48.194H203.458L203.367 50.716H202.405V49H196.737V50.716H195.775ZM201.17 48.194V43.202H198.648V44.125C198.648 44.827 198.57 45.555 198.414 46.309C198.275 47.0543 198.041 47.6827 197.712 48.194H201.17ZM211.686 49.221C211.296 49.2903 210.893 49.2903 210.477 49.221C210.287 49.195 210.022 49.091 209.684 48.909C209.329 48.7183 209.034 48.4627 208.8 48.142C208.566 47.8213 208.358 47.3533 208.176 46.738C207.994 46.088 207.903 45.3253 207.903 44.45C207.903 43.566 207.994 42.8077 208.176 42.175C208.376 41.5163 208.588 41.0353 208.813 40.732C209.03 40.446 209.303 40.2077 209.632 40.017C209.97 39.8263 210.252 39.7137 210.477 39.679C210.893 39.6097 211.296 39.6097 211.686 39.679C211.886 39.705 212.154 39.809 212.492 39.991C212.856 40.1817 213.151 40.4373 213.376 40.758C213.61 41.0787 213.814 41.551 213.987 42.175C214.178 42.799 214.273 43.5573 214.273 44.45C214.273 45.3427 214.178 46.1053 213.987 46.738C213.797 47.388 213.584 47.8647 213.35 48.168C213.116 48.48 212.83 48.727 212.492 48.909C212.154 49.091 211.886 49.195 211.686 49.221ZM209.58 47.193C209.91 47.895 210.412 48.246 211.088 48.246C211.773 48.246 212.271 47.895 212.583 47.193C212.904 46.4997 213.064 45.5853 213.064 44.45C213.064 43.3147 212.904 42.4003 212.583 41.707C212.271 41.005 211.773 40.654 211.088 40.654C210.412 40.654 209.91 41.005 209.58 41.707C209.268 42.409 209.112 43.3233 209.112 44.45C209.112 45.5767 209.268 46.491 209.58 47.193ZM218.707 49H217.784L223.686 39.9H224.609L218.707 49ZM215.938 42.396C215.938 41.9107 216.012 41.486 216.159 41.122C216.307 40.7493 216.502 40.472 216.744 40.29C217.178 39.9607 217.62 39.796 218.07 39.796C218.521 39.796 218.959 39.9607 219.383 40.29C219.929 40.6887 220.202 41.3907 220.202 42.396C220.202 42.968 220.064 43.5183 219.786 44.047C219.648 44.333 219.427 44.5627 219.123 44.736C218.82 44.9093 218.469 44.996 218.07 44.996C217.256 44.996 216.679 44.6797 216.341 44.047C216.073 43.4837 215.938 42.9333 215.938 42.396ZM216.77 42.396C216.77 42.8033 216.844 43.1933 216.991 43.566C217.182 44.06 217.542 44.307 218.07 44.307C218.599 44.307 218.959 44.06 219.149 43.566C219.297 43.1933 219.37 42.8033 219.37 42.396C219.37 41.72 219.236 41.2347 218.967 40.94C218.69 40.6367 218.391 40.485 218.07 40.485C217.75 40.485 217.451 40.6367 217.173 40.94C216.905 41.2347 216.77 41.72 216.77 42.396ZM222.139 46.504C222.139 46.0187 222.213 45.594 222.36 45.23C222.508 44.8573 222.703 44.58 222.945 44.398C223.379 44.0687 223.821 43.904 224.271 43.904C224.722 43.904 225.16 44.0687 225.584 44.398C226.13 44.7967 226.403 45.4987 226.403 46.504C226.403 47.076 226.265 47.6263 225.987 48.155C225.849 48.441 225.628 48.6707 225.324 48.844C225.021 49.0173 224.67 49.104 224.271 49.104C223.457 49.104 222.88 48.7877 222.542 48.155C222.274 47.5917 222.139 47.0413 222.139 46.504ZM222.971 46.504C222.971 46.9113 223.045 47.3013 223.192 47.674C223.383 48.168 223.743 48.415 224.271 48.415C224.8 48.415 225.16 48.168 225.35 47.674C225.498 47.3013 225.571 46.9113 225.571 46.504C225.571 45.828 225.437 45.3427 225.168 45.048C224.891 44.7447 224.592 44.593 224.271 44.593C223.951 44.593 223.652 44.7447 223.374 45.048C223.106 45.3427 222.971 45.828 222.971 46.504Z" fill="#211A1D" fill-opacity="0.6"/>
</svg>
