<svg width="49" height="31" viewBox="0 0 49 31" fill="none" xmlns="http://www.w3.org/2000/svg">
<path d="M31.004 27.1896H17.7879V3.44678H31.004V27.1896Z" fill="#FF5F00"/>
<path d="M18.6332 15.2725C18.6332 10.4701 20.8422 6.14802 24.396 3.36266C21.8027 1.34567 18.5371 0.0970516 15.0794 0.0970516C6.7233 0.0970516 0 6.82035 0 15.1765C0 23.5326 6.7233 30.2559 15.0794 30.2559C18.6332 30.2559 21.8027 29.0072 24.396 26.9903C20.8422 24.397 18.6332 20.0749 18.6332 15.2725Z" fill="#EB001B"/>
<path d="M48.8304 15.2722C48.8304 23.6283 42.1071 30.3516 33.751 30.3516C30.1973 30.3516 27.0277 29.1029 24.4344 27.086C27.9882 24.3006 30.1973 20.0745 30.1973 15.1761C30.1973 10.2777 27.9882 6.05163 24.4344 3.26626C27.0277 1.24927 30.2933 0.000659943 33.751 0.000659943C42.0111 0.192755 48.8304 6.91606 48.8304 15.2722Z" fill="#F79E1B"/>
</svg>
