<svg width="79" height="27" viewBox="0 0 79 27" fill="none" xmlns="http://www.w3.org/2000/svg">
<path d="M34.2271 25.6189H27.8577L31.8473 0.462402H38.2517L34.2271 25.6189Z" fill="#00579F"/>
<path d="M57.4298 1.06746C56.1699 0.569313 54.1751 0 51.6903 0C45.3559 0 40.9113 3.41587 40.8763 8.3262C40.8413 11.9556 44.061 13.9482 46.4758 15.1579C48.9606 16.4033 49.8005 17.1861 49.8005 18.2892C49.7655 19.9615 47.8057 20.7443 45.9509 20.7443C43.3961 20.7443 42.0312 20.3529 39.9314 19.3922L39.0915 19.0008L38.2516 24.6584C39.7564 25.37 42.5212 25.9749 45.3909 26.0105C52.1103 26.0105 56.4849 22.6302 56.5199 17.3996C56.5549 14.5175 54.84 12.347 51.1304 10.5323C48.8906 9.39366 47.5257 8.61085 47.5257 7.43665C47.5607 6.36918 48.6806 5.26614 51.2004 5.26614C53.2652 5.19498 54.805 5.72871 55.9599 6.22686L56.5899 6.51151L57.4298 1.06746Z" fill="#00579F"/>
<path d="M65.934 16.7234C66.4589 15.2645 68.4888 9.67815 68.4888 9.67815C68.4538 9.74931 69.0137 8.21929 69.3287 7.25857L69.7836 9.42908C69.7836 9.42908 71.0085 15.4424 71.2535 16.7234C70.2736 16.7234 67.2289 16.7234 65.934 16.7234ZM73.8433 0.462402H68.9087C67.3689 0.462402 66.214 0.924969 65.549 2.56174L56.0299 25.6545H62.7493C62.7493 25.6545 63.8692 22.5588 64.0792 21.8828C64.8141 21.8828 71.3585 21.8828 72.3034 21.8828C72.4784 22.7723 73.0733 25.6545 73.0733 25.6545H78.9878L73.8433 0.462402Z" fill="#00579F"/>
<path d="M22.5031 0.462402L16.2387 17.6129L15.5387 14.1259C14.3838 10.1407 10.7442 5.76413 6.68457 3.59362L12.424 25.5833H19.1784L29.2574 0.462402H22.5031Z" fill="#00579F"/>
<path d="M10.394 0.462402H0.104991L0 0.960551C8.04924 3.05989 13.3687 8.07696 15.5385 14.1259L13.2987 2.56174C12.9488 0.960551 11.7939 0.497984 10.394 0.462402Z" fill="#FAA61A"/>
</svg>
